<?xml version="1.0" encoding="UTF-8" standalone="no"?>
<!-- Created with Inkscape (http://www.inkscape.org/) -->

<svg
   version="1.1"
   id="svg1"
   width="280.94666"
   height="80.480003"
   viewBox="0 0 280.94666 80.480003"
   sodipodi:docname="DT_TitaniumBlackPartner_Blue.svg"
   inkscape:version="1.3.2 (091e20e, 2023-11-25)"
   xmlns:inkscape="http://www.inkscape.org/namespaces/inkscape"
   xmlns:sodipodi="http://sodipodi.sourceforge.net/DTD/sodipodi-0.dtd"
   xmlns="http://www.w3.org/2000/svg"
   xmlns:svg="http://www.w3.org/2000/svg">
  <defs
     id="defs1" />
  <sodipodi:namedview
     id="namedview1"
     pagecolor="#ffffff"
     bordercolor="#000000"
     borderopacity="0.25"
     inkscape:showpageshadow="2"
     inkscape:pageopacity="0.0"
     inkscape:pagecheckerboard="0"
     inkscape:deskcolor="#d1d1d1"
     inkscape:zoom="2.3919132"
     inkscape:cx="140.26429"
     inkscape:cy="47.660593"
     inkscape:window-width="1408"
     inkscape:window-height="449"
     inkscape:window-x="0"
     inkscape:window-y="37"
     inkscape:window-maximized="0"
     inkscape:current-layer="g1">
    <inkscape:page
       x="0"
       y="0"
       inkscape:label="1"
       id="page1"
       width="280.94666"
       height="80.480003"
       margin="0"
       bleed="0" />
  </sodipodi:namedview>
  <g
     id="g1"
     inkscape:groupmode="layer"
     inkscape:label="1">
    <g
       id="group-R5">
      <path
         id="path2"
         d="M 2103.3,3.75 H 3.75 V 599.895 H 2103.3 V 3.75"
         style="fill:#ffffff;fill-opacity:1;fill-rule:nonzero;stroke:none"
         transform="matrix(0.13333333,0,0,-0.13333333,0,80.48)" />
      <path
         id="path3"
         d="M 2103.3,3.75 H 3.75 V 599.895 H 2103.3 Z"
         style="fill:none;stroke:#2286d0;stroke-width:7.5;stroke-linecap:butt;stroke-linejoin:miter;stroke-miterlimit:10;stroke-dasharray:none;stroke-opacity:1"
         transform="matrix(0.13333333,0,0,-0.13333333,0,80.48)" />
      <path
         id="path4"
         d="m 856.129,461.352 v 7.128 l -2.375,2.375 H 730.176 l -2.383,-2.375 v -7.128 l 2.383,-2.375 h 52.277 l 2.375,-2.375 V 306.883 l 2.383,-2.375 h 9.508 l 2.375,2.375 v 149.719 l 2.371,2.375 h 52.289 z m 64.031,-90.301 h -71.289 l -2.375,2.375 c 0,16.637 9.508,40.394 38.016,40.394 28.527,0 38.031,-23.757 38.031,-40.394 z m 14.266,-11.891 2.383,2.383 v 7.125 c 0,33.273 -19.024,57.043 -52.297,57.043 -33.258,0 -52.278,-23.77 -52.278,-57.043 v -4.75 c 0,-33.266 16.637,-61.781 54.661,-61.781 33.265,0 45.144,21.383 47.531,35.648 l -2.387,2.371 h -9.496 l -2.383,-2.371 c -4.75,-14.265 -14.254,-23.769 -33.265,-23.769 -30.891,0 -40.399,28.515 -40.399,42.769 l 2.375,2.375 z m 26.14,4.758 c 0,33.277 16.629,49.902 40.404,49.902 23.75,0 33.26,-14.254 35.63,-28.507 l 2.38,-2.383 h 9.51 l 2.38,2.383 c -2.38,23.761 -21.4,40.398 -49.9,40.398 -30.896,0 -54.657,-19.023 -54.657,-61.793 0,-42.77 23.761,-61.781 54.657,-61.781 28.5,0 47.52,16.636 49.9,40.394 l -2.38,2.375 h -9.51 l -2.38,-2.375 c -2.37,-14.254 -11.88,-28.515 -35.63,-28.515 -23.775,0 -40.404,16.636 -40.404,49.902 m 204.364,-57.035 v 71.301 c 0,30.89 -16.64,47.527 -42.77,47.527 -16.64,0 -30.89,-7.141 -38.03,-19.023 h -2.37 v 61.792 l -2.37,2.375 h -9.51 l -2.38,-2.375 V 306.883 l 2.38,-2.375 h 9.51 l 2.37,2.375 v 64.168 c 0,26.144 11.89,42.769 38.02,42.769 19.02,0 30.89,-11.879 30.89,-35.636 v -71.301 l 2.38,-2.375 h 9.51 z m 121.2,0 v 71.301 c 0,30.89 -16.63,47.527 -42.77,47.527 -16.64,0 -30.9,-7.141 -38.02,-19.023 h -2.39 l -2.36,14.277 -2.39,2.371 h -7.13 l -2.37,-2.371 V 306.883 l 2.37,-2.375 h 9.52 l 2.36,2.375 v 64.168 c 0,26.144 11.89,42.769 38.03,42.769 19.01,0 30.89,-11.879 30.89,-35.636 v -71.301 l 2.38,-2.375 h 9.51 z m 68.92,-4.746 c 30.89,0 54.66,21.383 54.66,61.781 0,40.398 -23.77,61.793 -54.66,61.793 -30.9,0 -54.67,-21.395 -54.67,-61.793 0,-40.398 23.77,-61.781 54.67,-61.781 m 0,111.683 c 23.76,0 40.39,-19.011 40.39,-49.902 0,-30.891 -16.63,-49.902 -40.39,-49.902 -23.77,0 -40.41,19.011 -40.41,49.902 0,30.891 16.64,49.902 40.41,49.902 m 85.54,-106.937 V 468.48 l -2.38,2.375 h -9.5 l -2.39,-2.375 V 306.883 l 2.39,-2.375 h 9.5 z m 71.3,-4.746 c 30.89,0 54.65,21.383 54.65,61.781 0,40.398 -23.76,61.793 -54.65,61.793 -30.9,0 -54.66,-21.395 -54.66,-61.793 0,-40.398 23.76,-61.781 54.66,-61.781 m 0,111.683 c 23.76,0 40.38,-19.011 40.38,-49.902 0,-30.891 -16.62,-49.902 -40.38,-49.902 -23.77,0 -40.41,19.011 -40.41,49.902 0,30.891 16.64,49.902 40.41,49.902 m 154.45,-92.672 c 0,-30.894 -7.13,-54.664 -35.64,-54.664 -21.39,0 -28.52,9.508 -30.9,21.387 l -2.37,2.383 h -9.51 l -2.37,-2.383 c 2.37,-19.012 16.63,-33.266 45.15,-33.266 30.9,0 49.9,19.012 49.9,66.543 v 99.817 l -2.38,2.371 h -7.13 l -2.37,-2.371 -2.38,-14.277 h -2.38 c -4.75,9.507 -16.63,19.023 -38.02,19.023 -33.27,0 -49.91,-26.145 -49.91,-61.793 0,-35.641 16.64,-61.781 49.91,-61.781 21.39,0 33.27,9.496 38.02,19.011 z m -38.01,-7.132 c -23.77,0 -38.03,16.636 -38.03,49.902 0,33.277 14.26,49.902 38.03,49.902 23.75,0 38.01,-16.625 38.01,-49.902 0,-33.266 -14.26,-49.902 -38.01,-49.902 m 90.29,130.707 v 14.254 l -2.37,2.375 h -9.51 l -2.37,-2.375 v -14.254 l 2.37,-2.383 h 9.51 z m 0,-137.84 v 114.082 l -2.37,2.371 h -9.51 l -2.37,-2.371 V 306.883 l 2.37,-2.375 h 9.51 z m 104.57,64.168 h -71.29 l -2.39,2.375 c 0,16.637 9.51,40.394 38.03,40.394 28.51,0 38.02,-23.757 38.02,-40.394 z m 14.26,-11.891 2.36,2.383 v 7.125 c 0,33.273 -19.01,57.043 -52.27,57.043 -33.27,0 -52.28,-23.77 -52.28,-57.043 v -4.75 c 0,-33.266 16.64,-61.781 54.66,-61.781 33.27,0 45.15,21.383 47.53,35.648 l -2.38,2.371 h -9.51 l -2.37,-2.371 c -4.76,-14.265 -14.27,-23.769 -33.27,-23.769 -30.9,0 -40.41,28.515 -40.41,42.769 l 2.39,2.375 z m 102.18,-23.762 c 0,21.387 -11.89,30.895 -35.66,35.653 -23.76,4.746 -38.01,7.133 -38.01,23.758 0,11.879 9.5,19.011 26.14,19.011 21.39,0 28.52,-9.504 28.52,-21.386 l 2.37,-2.371 h 9.51 l 2.38,2.371 c 0,23.761 -19.02,33.277 -42.78,33.277 -26.14,0 -40.4,-14.266 -40.4,-30.902 0,-19.012 14.26,-28.516 38.02,-33.266 23.77,-4.758 35.65,-7.133 35.65,-26.145 0,-11.878 -7.12,-21.382 -30.89,-21.382 -21.39,0 -30.9,11.89 -30.9,26.14 l -2.37,2.375 h -9.51 l -2.37,-2.375 c 0,-21.383 16.63,-38.019 45.15,-38.019 30.89,0 45.15,14.254 45.15,33.261"
         style="fill:#2286d0;fill-opacity:1;fill-rule:nonzero;stroke:none"
         transform="matrix(0.13333333,0,0,-0.13333333,0,80.48)" />
      <path
         id="path5"
         d="m 201.984,337.566 v 100.231 h 29.649 c 25.07,0 45.394,-22.438 45.394,-50.113 0,-27.68 -20.324,-50.118 -45.394,-50.118 z m 29.649,-33.058 c 38.707,0 71.238,26.441 80.519,62.246 l 94.11,-73.527 94.047,73.48 v -62.199 h 107.312 v 33.058 H 538.094 V 470.855 H 500.309 V 408.66 l -90.211,-70.484 -20.176,15.762 43.187,33.746 47.024,36.738 -26.848,20.976 -90.215,-70.48 -20.175,15.762 90.214,70.48 -26.847,20.981 -94.11,-73.528 c -9.281,35.805 -41.812,62.242 -80.519,62.242 h -67.43 V 304.508 Z m 496.16,33.058 V 304.508 H 620.48 v 166.347 h 37.782 V 337.566 h 69.531"
         style="fill:#2286d0;fill-opacity:1;fill-rule:nonzero;stroke:none"
         transform="matrix(0.13333333,0,0,-0.13333333,0,80.48)" />
      <path
         id="path6"
         d="m 455.512,175.754 h -20.207 l -1.008,-1.016 v -56.562 l -1.012,-1.016 h -12.121 l -1.012,1.016 v 56.562 l -1.007,1.016 h -20.204 l -1.007,1.008 v 10.097 l 1.007,1.012 h 56.571 l 1.004,-1.012 v -10.097 l -1.004,-1.008"
         style="fill:#2286d0;fill-opacity:1;fill-rule:nonzero;stroke:none"
         transform="matrix(0.13333333,0,0,-0.13333333,0,80.48)" />
      <path
         id="path7"
         d="m 489.84,117.16 h -12.117 l -1.012,1.016 v 68.683 l 1.012,1.012 h 12.117 l 1.012,-1.012 v -68.683 l -1.012,-1.016"
         style="fill:#2286d0;fill-opacity:1;fill-rule:nonzero;stroke:none"
         transform="matrix(0.13333333,0,0,-0.13333333,0,80.48)" />
      <path
         id="path8"
         d="m 568.633,175.754 h -20.207 l -1.012,-1.016 v -56.562 l -1.012,-1.016 h -12.117 l -1.012,1.016 v 56.562 l -1.011,1.016 h -20.199 l -1.012,1.008 v 10.097 l 1.012,1.012 h 56.57 l 1.008,-1.012 v -10.097 l -1.008,-1.008"
         style="fill:#2286d0;fill-opacity:1;fill-rule:nonzero;stroke:none"
         transform="matrix(0.13333333,0,0,-0.13333333,0,80.48)" />
      <path
         id="path9"
         d="m 609.02,169.691 h -1.008 l -9.094,-24.238 1.012,-1.015 h 17.172 l 1.011,1.015 z m 29.293,-52.531 h -9.09 l -1.008,1.016 -5.055,13.125 -2.019,1.015 h -25.25 l -2.02,-1.015 -5.055,-13.125 -1.011,-1.016 h -9.086 l -1.012,1.016 v 10.097 l 23.234,58.586 1.008,1.012 h 13.133 l 1.008,-1.012 23.234,-58.586 v -10.097 l -1.011,-1.016"
         style="fill:#2286d0;fill-opacity:1;fill-rule:nonzero;stroke:none"
         transform="matrix(0.13333333,0,0,-0.13333333,0,80.48)" />
      <path
         id="path10"
         d="m 660.531,187.871 h 14.141 l 2.019,-1.012 27.278,-46.464 h 1.004 v 46.464 l 1.011,1.012 h 12.125 l 1.008,-1.012 v -68.683 l -1.008,-1.016 h -14.14 l -2.024,1.016 -27.273,46.465 h -1.012 v -46.465 l -1.012,-1.016 h -12.117 l -1.011,1.016 v 68.683 l 1.011,1.012"
         style="fill:#2286d0;fill-opacity:1;fill-rule:nonzero;stroke:none"
         transform="matrix(0.13333333,0,0,-0.13333333,0,80.48)" />
      <path
         id="path11"
         d="m 758.5,117.16 h -12.121 l -1.012,1.016 v 68.683 l 1.012,1.012 H 758.5 l 1.008,-1.012 V 118.176 L 758.5,117.16"
         style="fill:#2286d0;fill-opacity:1;fill-rule:nonzero;stroke:none"
         transform="matrix(0.13333333,0,0,-0.13333333,0,80.48)" />
      <path
         id="path12"
         d="m 842.336,144.438 c 0,-18.184 -10.102,-28.282 -28.281,-28.282 -18.184,0 -28.285,10.098 -28.285,28.282 v 42.421 l 1.011,1.012 h 12.117 l 1.012,-1.012 v -42.421 c 0,-10.098 4.043,-16.165 14.145,-16.165 10.097,0 14.14,6.067 14.14,16.165 v 42.421 l 1.012,1.012 h 12.117 l 1.012,-1.012 v -42.421"
         style="fill:#2286d0;fill-opacity:1;fill-rule:nonzero;stroke:none"
         transform="matrix(0.13333333,0,0,-0.13333333,0,80.48)" />
      <path
         id="path13"
         d="m 943.34,117.16 h -12.125 l -1.012,1.016 v 39.394 h -1.012 l -16.16,-39.394 -1.008,-1.016 H 900.91 l -1.012,1.016 -16.16,39.394 h -1.011 v -39.394 l -1.012,-1.016 h -12.117 l -1.012,1.016 v 68.683 l 1.012,1.012 h 15.152 l 1.008,-1.012 20.203,-49.492 h 1.008 l 20.207,49.492 1.012,1.012 h 15.152 l 1.008,-1.012 v -68.683 l -1.008,-1.016"
         style="fill:#2286d0;fill-opacity:1;fill-rule:nonzero;stroke:none"
         transform="matrix(0.13333333,0,0,-0.13333333,0,80.48)" />
      <path
         id="path14"
         d="m 1042.31,147.465 h -16.16 l -1.02,-1.008 v -16.16 l 1.02,-1.008 h 16.16 c 7.07,0 10.1,3.027 10.1,9.082 0,6.067 -3.03,9.094 -10.1,9.094 z m 0,28.289 h -16.16 l -1.02,-1.016 v -14.14 l 1.02,-1.004 h 16.16 c 6.06,0 8.08,4.031 8.08,8.074 0,5.051 -2.02,8.086 -8.08,8.086 z m 4.04,-58.594 H 1012 l -1.01,1.016 v 68.683 l 1.01,1.012 h 32.33 c 10.1,0 20.2,-5.047 20.2,-18.18 0,-7.07 -3.03,-13.136 -10.1,-15.156 v -1.008 c 8.08,-2.019 12.12,-8.074 12.12,-17.168 0,-14.148 -10.1,-19.199 -20.2,-19.199"
         style="fill:#2286d0;fill-opacity:1;fill-rule:nonzero;stroke:none"
         transform="matrix(0.13333333,0,0,-0.13333333,0,80.48)" />
      <path
         id="path15"
         d="m 1135.23,117.16 h -45.46 l -1.01,1.016 v 68.683 l 1.01,1.012 h 12.12 l 1.01,-1.012 v -56.562 l 1.01,-1.008 h 31.32 l 1.01,-1.016 v -10.097 l -1.01,-1.016"
         style="fill:#2286d0;fill-opacity:1;fill-rule:nonzero;stroke:none"
         transform="matrix(0.13333333,0,0,-0.13333333,0,80.48)" />
      <path
         id="path16"
         d="m 1182.7,169.691 h -1.01 l -9.09,-24.238 1.01,-1.015 h 17.17 l 1.01,1.015 z m 29.29,-52.531 h -9.09 l -1.01,1.016 -5.05,13.125 -2.02,1.015 h -25.26 l -2.01,-1.015 -5.06,-13.125 -1,-1.016 h -9.09 l -1.02,1.016 v 10.097 l 23.24,58.586 1.01,1.012 h 13.13 l 1.01,-1.012 23.23,-58.586 v -10.097 l -1.01,-1.016"
         style="fill:#2286d0;fill-opacity:1;fill-rule:nonzero;stroke:none"
         transform="matrix(0.13333333,0,0,-0.13333333,0,80.48)" />
      <path
         id="path17"
         d="m 1276.63,138.371 1.01,1.016 h 12.12 l 1.01,-1.016 c -2.02,-14.141 -13.13,-22.215 -29.29,-22.215 -22.22,0 -34.35,15.145 -34.35,36.367 0,21.211 12.13,36.356 34.35,36.356 16.16,0 27.27,-8.074 29.29,-21.211 l -1.01,-1.004 h -12.12 l -1.01,1.004 c -2.02,6.066 -7.07,9.094 -15.15,9.094 -14.14,0 -20.2,-10.098 -20.2,-24.239 0,-14.152 6.06,-24.25 20.2,-24.25 8.08,0 13.13,3.028 15.15,10.098"
         style="fill:#2286d0;fill-opacity:1;fill-rule:nonzero;stroke:none"
         transform="matrix(0.13333333,0,0,-0.13333333,0,80.48)" />
      <path
         id="path18"
         d="m 1366.52,117.16 h -7.07 l -2.03,1.016 -22.22,27.277 h -1.01 l -7.07,-7.082 v -20.195 l -1.01,-1.016 h -12.12 l -1.01,1.016 v 68.683 l 1.01,1.012 h 12.12 l 1.01,-1.012 V 157.57 h 1.01 l 29.29,29.289 2.03,1.012 h 5.05 l 1.01,-1.012 v -10.097 l -20.2,-20.207 v -1.004 l 22.22,-27.278 v -10.097 l -1.01,-1.016"
         style="fill:#2286d0;fill-opacity:1;fill-rule:nonzero;stroke:none"
         transform="matrix(0.13333333,0,0,-0.13333333,0,80.48)" />
      <path
         id="path19"
         d="m 1461.46,175.754 h -19.2 l -1.01,-1.016 v -16.16 l 1.01,-1.008 h 19.2 c 6.06,0 10.1,2.024 10.1,9.094 0,7.07 -4.04,9.09 -10.1,9.09 z m 0,-30.301 h -19.2 l -1.01,-1.015 v -26.262 l -1.01,-1.016 h -12.12 l -1.01,1.016 v 68.683 l 1.01,1.012 h 33.34 c 14.14,0 24.24,-7.066 24.24,-21.207 0,-14.141 -10.1,-21.211 -24.24,-21.211"
         style="fill:#2286d0;fill-opacity:1;fill-rule:nonzero;stroke:none"
         transform="matrix(0.13333333,0,0,-0.13333333,0,80.48)" />
      <path
         id="path20"
         d="m 1524.07,169.691 h -1.01 l -9.09,-24.238 1.01,-1.015 h 17.18 l 1.01,1.015 z m 29.3,-52.531 h -9.09 l -1.02,1.016 -5.04,13.125 -2.03,1.015 h -25.25 l -2.02,-1.015 -5.05,-13.125 -1.01,-1.016 h -9.09 l -1.01,1.016 v 10.097 l 23.23,58.586 1.01,1.012 h 13.13 l 1.02,-1.012 23.23,-58.586 v -10.097 l -1.01,-1.016"
         style="fill:#2286d0;fill-opacity:1;fill-rule:nonzero;stroke:none"
         transform="matrix(0.13333333,0,0,-0.13333333,0,80.48)" />
      <path
         id="path21"
         d="m 1608.92,175.754 h -19.2 l -1.01,-1.016 v -16.16 l 1.01,-1.008 h 19.2 c 6.06,0 10.1,2.024 10.1,9.094 0,7.07 -4.04,9.09 -10.1,9.09 z m 9.09,-29.297 v -1.004 l 13.13,-17.18 v -10.097 l -1.01,-1.016 h -6.06 l -2.02,1.016 -20.2,26.262 -2.02,1.015 h -10.11 l -1.01,-1.015 v -26.262 l -1.01,-1.016 h -12.12 l -1.01,1.016 v 68.683 l 1.01,1.012 h 33.34 c 14.14,0 24.24,-7.066 24.24,-21.207 0,-11.113 -7.07,-18.184 -15.15,-20.207"
         style="fill:#2286d0;fill-opacity:1;fill-rule:nonzero;stroke:none"
         transform="matrix(0.13333333,0,0,-0.13333333,0,80.48)" />
      <path
         id="path22"
         d="m 1703.86,175.754 h -20.21 l -1.01,-1.016 v -56.562 l -1.01,-1.016 h -12.12 l -1.01,1.016 v 56.562 l -1.01,1.016 h -20.2 l -1.01,1.008 v 10.097 l 1.01,1.012 h 56.57 l 1.01,-1.012 v -10.097 l -1.01,-1.008"
         style="fill:#2286d0;fill-opacity:1;fill-rule:nonzero;stroke:none"
         transform="matrix(0.13333333,0,0,-0.13333333,0,80.48)" />
      <path
         id="path23"
         d="m 1724.05,187.871 h 14.14 l 2.02,-1.012 27.27,-46.464 h 1.01 v 46.464 l 1.01,1.012 h 12.13 l 1.01,-1.012 v -68.683 l -1.01,-1.016 h -14.15 l -2.01,1.016 -27.28,46.465 h -1.01 v -46.465 l -1.01,-1.016 h -12.12 l -1.01,1.016 v 68.683 l 1.01,1.012"
         style="fill:#2286d0;fill-opacity:1;fill-rule:nonzero;stroke:none"
         transform="matrix(0.13333333,0,0,-0.13333333,0,80.48)" />
      <path
         id="path24"
         d="m 1855.36,117.16 h -47.48 l -1.01,1.016 v 68.683 l 1.01,1.012 h 47.48 l 1.01,-1.012 v -10.097 l -1.01,-1.008 h -33.34 l -1.01,-1.016 v -14.14 l 1.01,-1.004 h 31.32 l 1.01,-1.016 V 148.48 l -1.01,-1.015 h -31.32 l -1.01,-1.008 v -16.16 l 1.01,-1.008 h 33.34 l 1.01,-1.016 v -10.097 l -1.01,-1.016"
         style="fill:#2286d0;fill-opacity:1;fill-rule:nonzero;stroke:none"
         transform="matrix(0.13333333,0,0,-0.13333333,0,80.48)" />
      <path
         id="path25"
         d="m 1914.94,175.754 h -19.19 l -1.01,-1.016 v -16.16 l 1.01,-1.008 h 19.19 c 6.06,0 10.1,2.024 10.1,9.094 0,7.07 -4.04,9.09 -10.1,9.09 z m 9.1,-29.297 v -1.004 l 13.13,-17.18 v -10.097 l -1.02,-1.016 h -6.05 l -2.03,1.016 -20.2,26.262 -2.02,1.015 h -10.1 l -1.01,-1.015 v -26.262 l -1.01,-1.016 h -12.12 l -1.01,1.016 v 68.683 l 1.01,1.012 h 33.33 c 14.14,0 24.25,-7.066 24.25,-21.207 0,-11.113 -7.07,-18.184 -15.15,-20.207"
         style="fill:#2286d0;fill-opacity:1;fill-rule:nonzero;stroke:none"
         transform="matrix(0.13333333,0,0,-0.13333333,0,80.48)" />
    </g>
  </g>
</svg>
